HIERARCHY
ROOT Hips
{
  OFFSET 263.056 91.6644 -274.608
  CHANNELS 6 Xposition Yposition Zposition Zrotation Xrotation Yrotation
  JOINT LeftUpLeg
  {
    OFFSET 8.64259 1.95398 -2.38835
    CHANNELS 3 Zrotation Xrotation Yrotation
    JOINT LeftLeg
    {
      OFFSET 43.7702 0 0
      CHANNELS 3 Zrotation Xrotation Yrotation
      JOINT LeftFoot
      {
        OFFSET 40.6238 0 0
        CHANNELS 3 Zrotation Xrotation Yrotation
        JOINT LeftToeBase
        {
          OFFSET 12.7242 0 0
          CHANNELS 3 Zrotation Xrotation Yrotation
          End Site
          {
            OFFSET 0 0 0
          }
        }
      }
    }
  }
  JOINT RightUpLeg
  {
    OFFSET -8.2249 1.95398 -2.59336
    CHANNELS 3 Zrotation Xrotation Yrotation
    JOINT RightLeg
    {
      OFFSET 43.5653 0 0
      CHANNELS 3 Zrotation Xrotation Yrotation
      JOINT RightFoot
      {
        OFFSET 40.6238 0 0
        CHANNELS 3 Zrotation Xrotation Yrotation
        JOINT RightToeBase
        {
          OFFSET 12.7242 0 0
          CHANNELS 3 Zrotation Xrotation Yrotation
          End Site
          {
            OFFSET 0 0 0
          }
        }
      }
    }
  }
  JOINT Spine
  {
    OFFSET 0.165834 0.87714 6.61349
    CHANNELS 3 Zrotation Xrotation Yrotation
    JOINT Spine1
    {
      OFFSET 7.38963 1.71661e-005 0
      CHANNELS 3 Zrotation Xrotation Yrotation
      JOINT Spine2
      {
        OFFSET 11.9445 1.14441e-005 0
        CHANNELS 3 Zrotation Xrotation Yrotation
        JOINT Spine3
        {
          OFFSET 14.7254 4.19617e-005 0
          CHANNELS 3 Zrotation Xrotation Yrotation
          JOINT Spine4
          {
            OFFSET 10.9679 0 0
            CHANNELS 3 Zrotation Xrotation Yrotation
            JOINT RightShoulder
            {
              OFFSET 2.46616 -1.6653 3.69651
              CHANNELS 3 Zrotation Xrotation Yrotation
              JOINT RightArm
              {
                OFFSET 13.0012 0 0
                CHANNELS 3 Zrotation Xrotation Yrotation
                JOINT RightForeArm
                {
                  OFFSET 28.7848 1.52588e-005 0
                  CHANNELS 3 Zrotation Xrotation Yrotation
                  JOINT RightHand
                  {
                    OFFSET 26.5688 1.52588e-005 0
                    CHANNELS 3 Zrotation Xrotation Yrotation
                    End Site
                    {
                      OFFSET 0 0 0
                    }
                  }
                }
              }
            }
            JOINT LeftShoulder
            {
              OFFSET 2.38034 -1.29275 -3.7523
              CHANNELS 3 Zrotation Xrotation Yrotation
              JOINT LeftArm
              {
                OFFSET 16.3182 6.10352e-005 0
                CHANNELS 3 Zrotation Xrotation Yrotation
                JOINT LeftForeArm
                {
                  OFFSET 27.0901 0 0
                  CHANNELS 3 Zrotation Xrotation Yrotation
                  JOINT LeftHand
                  {
                    OFFSET 24.5451 1.52588e-005 0
                    CHANNELS 3 Zrotation Xrotation Yrotation
                    End Site
                    {
                      OFFSET 0 0 0
                    }
                  }
                }
              }
            }
            JOINT Neck
            {
              OFFSET 5.0226 -0.0266342 0
              CHANNELS 3 Zrotation Xrotation Yrotation
              JOINT Head
              {
                OFFSET 6.69364 2.86102e-005 0
                CHANNELS 3 Zrotation Xrotation Yrotation
                End Site
                {
                  OFFSET 0 0 0
                }
              }
            }
          }
        }
      }
    }
  }
}
MOTION
Frames:	15
Frame Time:	0.0416667
54.3468 95.9639 15.2722 87.5909 -11.8123 86.19 -168.338 22.4795 93.1469 -15.7508 -1.36913 -4.32438 55.8207 -0.123818 4.64418 44.9038 18.4506 3.08766 173.597 2.54169 83.0578 -16.6566 24.6204 -0.637919 67.3704 -2.59704 -1.45238 40.5185 0.925821 5.05206 -0.0440522 7.77387 -90.0109 11.3263 -0.0926924 -0.0123863 -0.344656 -0.0931244 -0.00829502 -22.8798 -0.0846698 -0.0396615 -2.86718 -0.0846658 -0.0396664 81.916 -49.4839 -113.241 20.5212 -1.11621 18.937 -10.4484 -9.37247 -48.0607 -10.1764 -0.797417 3.75725 -103.632 -43.4756 55.9012 -33.0691 3.3085 11.8684 4.58993 4.92037 -29.6341 9.53333 0.616016 2.40425 4.6829 18.2394 4.77154 4.34491 17.7119 10.2978 
57.2042 95.5202 14.2453 86.3957 -6.27238 86.9494 -170.207 25.3857 93.7774 -9.90881 -1.80344 -3.48969 56.6206 0.0806421 6.0304 45.3725 18.461 0.615629 173.143 -0.378843 83.5915 -13.5299 29.5696 -0.0674499 66.3593 -3.80266 -2.10382 41.5555 1.00075 4.37098 0.165176 7.75402 -90.0027 11.366 0.327402 -0.0382394 -0.304954 0.325417 -0.0526123 -22.8404 0.323773 0.0619272 -2.82779 0.32377 0.0619294 81.9493 -49.9095 -113.033 20.6859 -1.7356 17.7529 -12.0406 -10.8805 -48.5211 -10.158 -0.750758 3.10254 -103.219 -43.9653 56.7527 -34.6072 3.01267 13.9982 4.2836 3.79765 -29.811 8.99216 0.555379 2.11465 3.81529 16.3193 4.65886 5.55504 16.0017 10.3666 
60.9951 94.6949 12.4203 85.1161 -2.35851 87.7014 -170.599 27.902 94.232 -7.72493 -7.77986 -2.86357 57.253 0.191278 6.4934 41.4774 14.4646 2.71379 172.626 -1.49955 83.5055 -14.234 32.8067 0.398131 64.5441 -4.14123 -2.3152 45.3583 1.23254 2.73778 0.367317 7.70744 -89.8947 11.4587 0.780109 0.130918 -0.212065 0.785138 0.096453 -22.7488 0.704693 0.359335 -2.73614 0.704673 0.359325 81.2657 -50.6251 -113.781 21.4303 -2.70315 16.0887 -12.5346 -10.7871 -50.104 -11.9397 -0.881954 3.39097 -101.952 -44.3334 58.8327 -36.3791 2.21035 15.8132 4.83494 4.44193 -29.2129 8.70865 0.538603 2.10698 3.62795 14.8546 3.21426 6.12567 14.8569 10.2563 
65.7668 93.6723 9.32207 84.7734 0.722454 90.7105 -169.041 31.4441 93.7752 -14.7862 -6.70243 -4.58753 59.0207 1.98398 9.06147 40.2732 12.7337 -0.21035 171.72 -3.80779 82.8586 -16.0004 30.5306 0.801189 59.2393 -3.05419 -1.78304 52.9809 1.02108 -2.95736 0.515224 7.76352 -89.8876 11.3463 1.07764 0.115539 -0.324206 1.08172 0.0679833 -22.8625 0.993099 0.434105 -2.84982 0.99312 0.434107 81.6989 -50.6735 -113.123 23.3004 -3.72732 14.0267 -13.8909 -11.2073 -51.615 -12.4908 -0.905371 3.26649 -101.324 -44.2636 59.7546 -37.7873 1.84137 17.1092 4.76042 4.47852 -27.8994 8.47367 0.526516 2.09714 4.88618 13.6483 1.70786 5.67684 13.8588 10.3119 
71.6873 93.0494 4.72087 84.2718 4.58249 90.2605 -167.743 33.2921 90.6781 -23.8955 -3.92036 -5.61007 59.4881 2.53327 9.19239 37.3102 9.07602 -8.96048 170.32 -3.58259 79.4029 -21.5753 24.3303 -0.561487 51.5542 -1.0396 -0.408598 54.9782 0.23995 -8.0346 0.712384 7.84009 -89.7469 11.1928 1.53563 0.354134 -0.477239 1.54973 0.286188 -23.018 1.35818 0.799351 -3.00538 1.35819 0.799353 81.5211 -50.6676 -113.388 24.4158 -4.19527 12.6575 -14.6518 -12.6207 -51.1508 -13.5905 -0.980327 3.37843 -101.603 -44.3778 59.3802 -37.8928 2.56296 16.3433 4.12058 4.72796 -25.8282 7.59899 0.437428 1.68265 7.31261 12.3137 0.83502 4.17896 12.5197 10.1023 
77.749 92.9082 -0.785238 84.3938 9.77556 91.1471 -167.575 31.8703 87.5583 -29.5754 0.677576 -6.12421 62.4721 6.93465 12.3969 28.3461 1.39834 -18.1186 172.828 1.51909 78.6123 -35.6258 18.4788 -3.87181 43.3091 1.21926 1.59561 28.8559 0.66166 -10.6293 0.708814 7.81639 -89.7796 11.2398 1.51327 0.28935 -0.430247 1.52452 0.222447 -22.9711 1.35632 0.730849 -2.95844 1.35633 0.730844 82.5736 -49.1229 -112.385 27.2792 -5.29777 11.5282 -12.9059 -13.3704 -48.5544 -14.457 -1.02853 3.34738 -101.942 -43.9852 58.6938 -37.0121 3.9484 15.1048 3.82176 6.23889 -25.6018 7.08787 0.361918 1.09369 6.80573 11.4053 1.34908 3.2846 11.4307 9.42677 
83.2675 92.8275 -5.76209 84.992 18.0038 91.8342 -169.562 28.1563 84.4966 -32.4604 4.34329 -5.08252 67.5868 13.3803 14.3308 23.6234 -2.34004 -18.9863 174.998 8.37738 81.3025 -51.4592 5.25386 -4.63689 44.9242 2.45271 2.47329 33.9914 0.297852 -0.591824 0.358539 7.92325 -89.8248 11.0268 0.794934 0.272547 -0.643914 0.806175 0.237287 -23.1804 0.676297 0.498873 -3.16775 0.676285 0.498869 82.6032 -49.3077 -112.273 28.0714 -4.98003 10.7448 -14.4771 -13.8069 -49.534 -13.4907 -1.04858 4.10214 -103.089 -43.3732 56.6751 -33.4228 4.19553 13.1667 3.73081 4.32106 -29.1489 9.03564 0.399003 0.520178 6.49819 10.3771 0.993828 3.33839 10.51 9.49867 
88.6663 93.6728 -11.0523 84.8712 26.5234 93.0133 -172.902 21.7281 82.6107 -29.4483 8.93418 -3.17007 68.8396 15.6441 15.5124 26.7095 0.285228 -20.1612 177.702 16.1597 85.6156 -58.0505 3.36049 -4.57633 51.7964 0.853937 0.899644 43.2134 0.953847 0.461033 0.0712004 7.89613 -89.9913 11.0818 0.145841 0.00357715 -0.589126 0.145867 -0.00285088 -23.1243 0.138031 0.0472478 -3.11167 0.138021 0.0472369 82.8166 -48.9511 -112.081 28.5886 -4.75073 11.4118 -14.4897 -14.0011 -49.1799 -14.4421 -1.05598 3.62372 -103.994 -43.1288 55.1875 -28.8932 3.34957 9.71729 5.21607 4.22877 -34.879 10.6465 0.509828 0.885318 4.89957 8.723 2.10641 2.90561 8.64135 8.53753 
93.7632 95.2351 -16.4662 85.1328 34.4757 93.9078 -175.383 12.5108 81.9359 -22.095 12.8379 -1.54153 68.8727 15.0028 13.384 25.1931 -1.48709 -15.9361 -178.565 22.1053 88.8863 -53.1148 -0.176157 -5.6535 57.9135 -0.374579 -0.103495 49.3531 0.602469 -5.23352 -0.218889 7.8648 -90.1326 11.1439 -0.497256 -0.215848 -0.527001 -0.506263 -0.193761 -23.0626 -0.409406 -0.355321 -3.04995 -0.409395 -0.355324 82.9754 -49.0118 -111.819 28.2325 -5.27513 12.7313 -14.2955 -14.108 -49.048 -11.4026 -0.850733 3.31711 -104.321 -42.8338 54.5505 -25.3838 2.30712 6.26736 7.23373 4.42889 -42.025 11.6368 0.574776 1.04847 3.23565 6.98126 2.46684 1.51658 6.76528 7.42027 
99.0206 95.9088 -21.7825 84.4788 41.4638 95.3297 -175.481 4.3947 82.5972 -15.7478 15.2752 -1.42925 68.5484 13.2125 10.6362 28.9705 0.942541 -7.12032 -177.369 26.6699 90.0119 -39.5794 -0.287287 -4.76414 62.9012 -1.75996 -0.981063 47.7236 1.02798 -1.32115 -0.51339 7.72752 -90.2394 11.4173 -1.13323 -0.362247 -0.253175 -1.14807 -0.312027 -22.791 -0.971978 -0.68611 -2.77837 -0.97196 -0.686104 83.3083 -49.1474 -111.267 27.8937 -5.65399 14.4607 -14.4622 -14.0856 -49.4657 -8.70171 -0.691082 3.24755 -104.018 -42.4118 54.8052 -22.6997 3.2855 2.88118 8.04007 4.07834 -48.6419 13.347 0.774998 1.89384 1.76429 5.42702 1.74541 -0.0658398 5.27973 7.027 
104.445 94.9055 -26.9519 84.2368 46.9199 95.7503 -175.361 -1.53502 83.3642 -14.7053 18.7268 -0.876822 69.2606 15.5643 12.9805 33.3202 5.3323 -12.4135 -177.72 28.2183 89.5478 -19.4933 -1.39812 -2.59914 62.5627 -1.42255 -0.782938 50.7734 1.27497 -0.717171 -0.730125 7.73926 -90.2389 11.3939 -1.56423 -0.317795 -0.27617 -1.57669 -0.248633 -22.8173 -1.39638 -0.773293 -2.80461 -1.39638 -0.773294 82.9911 -49.4074 -111.655 26.9041 -5.09415 15.7887 -14.1783 -13.399 -50.024 -7.67323 -0.62502 3.16015 -104.043 -41.7397 54.4362 -20.1083 4.21207 -0.409084 10.8785 5.2975 -54.8416 12.2351 0.886888 3.24931 2.00092 3.97452 0.609823 -1.33859 3.93869 6.65706 
110.282 93.3441 -32.5968 85.8321 52.059 93.9106 -175.015 -6.43911 84.7674 -18.7441 26.5758 -0.364515 67.8947 15.326 14.7451 41.9382 13.525 -8.19692 -178.12 27.4797 88.4925 -5.97754 2.5952 -1.58139 64.0618 -1.89507 -1.05429 53.6766 1.81787 1.83291 -1.05171 7.89336 -90.1551 11.0873 -2.16529 -0.0994465 -0.581879 -2.16759 -0.00400309 -23.1302 -2.03529 -0.745882 -3.11751 -2.03528 -0.745881 82.8895 -50.6259 -111.375 24.8565 -3.95212 15.3204 -13.5541 -13.3449 -48.4654 -8.92853 -0.693241 3.12742 -104.297 -41.2441 53.8012 -18.9005 4.13431 -1.83034 11.2094 4.79094 -56.9767 13.2134 0.718233 1.52423 1.86132 3.15683 -0.23561 -1.26207 3.26338 6.31341 
116.763 92.3009 -39.9214 88.3546 53.6029 93.006 -175.351 -9.66008 87.0821 -25.765 29.2746 1.31299 61.9471 7.52614 11.1269 55.9346 26.4402 -8.8013 -178.041 30.0806 89.8346 -17.0279 0.478207 -1.59782 59.5896 -0.0548731 0.138697 52.5206 1.80754 2.26473 -1.08092 7.92133 -90.3952 11.0262 -2.3348 -0.562283 -0.642741 -2.3573 -0.458929 -23.1907 -2.05785 -1.23825 -3.17801 -2.05786 -1.23825 82.6932 -50.4812 -111.717 24.2417 -1.64576 16.0033 -13.8134 -13.4994 -46.3222 -9.20813 -0.746019 3.7173 -104.776 -42.3255 53.6098 -20.8808 4.62556 -0.847998 9.53949 4.44991 -53.7272 13.5693 0.641787 0.855883 1.42759 3.58532 2.41762 -2.55854 3.2077 5.15998 
123.075 91.6005 -48.2012 89.9873 52.8439 94.7301 -174.588 -7.06483 91.3406 -36.2928 29.0977 1.32333 44.4993 -10.3629 -0.677462 65.9782 36.1644 -7.67725 -179.008 31.4233 93.5217 -32.93 -0.345037 -1.00764 61.9563 -0.448618 -0.157571 46.9584 1.75357 6.53154 -0.839461 7.90412 -90.9212 11.0487 -2.09815 -1.6314 -0.621446 -2.1679 -1.53747 -23.1563 -1.51097 -2.18646 -3.1437 -1.51097 -2.18645 82.6863 -48.9576 -112.275 24.1369 -2.14235 14.8744 -9.92139 -13.4269 -40.1326 -9.83785 -0.778101 3.68329 -106.324 -43.5985 51.9289 -24.8731 4.59967 2.58342 7.8711 5.06139 -46.4827 13.6302 0.739691 1.53122 1.38412 4.0581 4.99311 -4.06398 3.22158 4.91232 
129.411 92.3598 -55.0487 91.8369 53.399 92.0566 -174.732 3.38882 93.147 -53.9892 22.7267 0.602163 40.0873 -13.3078 -1.38866 33.3247 4.85728 9.22121 -177.746 27.3091 94.9445 -39.5108 2.81327 -3.60464 68.8369 -2.45125 -1.30834 39.2028 0.967176 10.8627 -0.653805 7.87684 -90.677 11.1111 -1.61557 -1.18956 -0.559379 -1.66637 -1.1173 -23.095 -1.18343 -1.62008 -3.08233 -1.18343 -1.62007 82.4282 -49.6781 -112.401 25.0907 -2.51611 13.1704 -10.0325 -14.2176 -38.7856 -7.35532 -0.691243 4.91469 -105.984 -43.2329 52.2491 -27.6487 8.08203 3.88056 4.1243 6.72008 -34.148 12.6016 0.365637 -0.743402 0.972346 3.30748 3.36477 -4.88294 2.70677 4.88285 
